<?xml version="1.0" encoding="UTF-8"?>
<svg id="Big" xmlns="http://www.w3.org/2000/svg" viewBox="0 0 1000 1000">
  <path d="m396.11,274.73c0-57.39,46.52-103.91,103.91-103.91s103.91,46.52,103.91,103.91-46.52,103.91-103.91,103.91-103.91-46.52-103.91-103.91Zm-162.07,81.54c18.76-25.83,54.84-31.46,80.67-12.7l52.24,37.95c38.68,28.14,85.29,43.29,133.06,43.29s94.38-15.15,133.06-43.29l52.24-38.1c25.83-18.76,61.91-12.99,80.67,12.7,18.76,25.69,12.99,61.91-12.7,80.67l-52.24,38.1c-19.63,14.29-40.55,26.27-62.49,36.08v52.39h-277.08v-52.39c-21.94-9.67-42.86-21.79-62.49-36.08l-52.24-38.1c-25.83-18.76-31.46-54.84-12.7-80.67v.14Zm129.59,266.69l87.45,76.49-37.52,53.69,35.07,35.07c22.51,22.51,22.51,59.02,0,81.68-22.51,22.66-59.02,22.51-81.68,0l-69.27-69.27c-19.92-19.92-22.66-51.09-6.64-74.03l72.45-103.62h.14Zm185.44,76.49l87.45-76.49,72.45,103.62c16.02,22.95,13.28,54.12-6.49,73.89l-69.27,69.27c-22.51,22.51-59.02,22.51-81.68,0-22.66-22.51-22.51-59.02,0-81.68l35.07-35.07-37.52-53.69v.14Z"/>
  <ellipse cx="500" cy="528.82" rx="138.54" ry="104.63"/>
  <ellipse cx="500" cy="536.32" rx="152" ry="131.68"/>
</svg>