<?xml version="1.0" encoding="UTF-8"?>
<svg id="Chat" xmlns="http://www.w3.org/2000/svg" viewBox="0 0 1000 1000">
  <defs>
    <style>
      .cls-1 {
        opacity: .25;
      }
    </style>
  </defs>
  <path class="cls-1" d="m565.79,340.8c113.94,0,206.3,62.81,206.3,140.28,0,36.42-20.42,69.6-53.89,94.54-2.05,1.53-3.03,4.11-2.54,6.62l17.86,91.26c1.14,5.8-5.26,10.12-10.22,6.89l-97.07-63.22c-1.45-.94-3.2-1.28-4.9-.96-17.68,3.35-36.31,5.16-55.56,5.16-113.94,0-206.3-62.81-206.3-140.28s92.36-140.28,206.3-140.28Z"/>
  <path d="m434.21,318.5c-113.94,0-206.3,62.81-206.3,140.28,0,36.42,20.42,69.6,53.89,94.54,2.05,1.53,3.03,4.11,2.54,6.62l-17.86,91.26c-1.14,5.8,5.26,10.12,10.22,6.89l97.07-63.22c1.45-.94,3.2-1.28,4.9-.96,17.68,3.35,36.31,5.16,55.56,5.16,113.94,0,206.3-62.81,206.3-140.28s-92.36-140.28-206.3-140.28Z"/>
</svg>