<?xml version="1.0" encoding="UTF-8"?>
<svg id="Look" xmlns="http://www.w3.org/2000/svg" viewBox="0 0 1000 1000">
  <defs>
    <style>
      .cls-1 {
        fill: #fff;
      }

      .cls-2 {
        fill: none;
        stroke: #000;
        stroke-miterlimit: 10;
        stroke-width: 60px;
      }
    </style>
  </defs>
  <path class="cls-2" d="m731.6,480.32c6.64,8.72,6.8,20.75.42,29.66-30.05,42.04-122.89,138.01-232.78,138.01s-202.73-95.98-232.78-138.01c-6.37-8.92-6.22-20.94.42-29.66,30.48-40.06,122.98-128.32,232.35-128.32s201.87,88.26,232.35,128.32Z"/>
  <circle cx="498.75" cy="500.5" r="85.5"/>
  <path class="cls-1" d="m555.25,465c0,17.67-10,33-18,14-9.32-22.14-2.44-18.46-30-35-15-9,13-16,31-6,15.45,8.58,17,22,17,27Z"/>
  <ellipse class="cls-1" cx="546.75" cy="511" rx="6.5" ry="9"/>
</svg>