<?xml version="1.0" encoding="UTF-8"?>
<svg id="Mid" xmlns="http://www.w3.org/2000/svg" viewBox="0 0 1000 1000">
  <path d="m412.07,284.94c0-48.57,39.37-87.94,87.94-87.94s87.94,39.37,87.94,87.94-39.37,87.94-87.94,87.94-87.94-39.37-87.94-87.94Zm-137.17,69.01c15.88-21.86,46.41-26.63,68.28-10.75l44.22,32.12c32.73,23.82,72.19,36.64,112.62,36.64s79.88-12.83,112.62-36.64l44.22-32.25c21.86-15.88,52.4-10.99,68.28,10.75,15.88,21.74,10.99,52.4-10.75,68.28l-44.22,32.25c-16.61,12.09-34.32,22.23-52.89,30.54v44.34h-234.52v-44.34c-18.57-8.18-36.28-18.44-52.89-30.54l-44.22-32.25c-21.86-15.88-26.63-46.41-10.75-68.28v.12Zm109.68,225.72l74.02,64.74-31.76,45.44,29.68,29.68c19.05,19.05,19.05,49.96,0,69.13-19.05,19.18-49.96,19.05-69.13,0l-58.63-58.63c-16.86-16.86-19.18-43.24-5.62-62.66l61.32-87.7h.12Zm156.95,64.74l74.02-64.74,61.32,87.7c13.56,19.42,11.24,45.8-5.5,62.54l-58.63,58.63c-19.05,19.05-49.96,19.05-69.13,0-19.18-19.05-19.05-49.96,0-69.13l29.68-29.68-31.76-45.44v.12Z"/>
  <ellipse cx="500" cy="533.59" rx="117.26" ry="58.41"/>
</svg>