<?xml version="1.0" encoding="UTF-8"?>
<svg id="No_look" data-name="No look" xmlns="http://www.w3.org/2000/svg" viewBox="0 0 1000 1000">
  <defs>
    <style>
      .cls-1 {
        fill: #fff;
      }

      .cls-2 {
        opacity: .35;
      }
    </style>
  </defs>
  <path class="cls-2" d="m636.62,564.4c-5.29,4.04-10.79,8-16.47,11.83-17.06,11.49-35.77,21.77-55.59,29.25l45.76,45.76c17.72-8.56,35.43-19.16,53.05-31.79.15-.11.31-.22.46-.33,5.45-3.92,10.68-7.87,15.68-11.83l-42.89-42.89Zm-246.04-217.74c-17.7,7.94-35.38,17.78-52.98,29.52-.47.31-.94.63-1.4.94l197.94,197.94c24.16-1.4,49.32-4.44,75.22-9.62l-218.78-218.78Zm152.53,265.66c-14,3.62-28.43,5.68-43.11,5.68-55.6,0-107.49-29.52-146.44-61.35,40.95,10.76,93.48,19.84,153.19,19.31l-187.11-187.11c-42.7,31.81-68.38,63.46-75.87,73.31-14.68,19.29-15.07,45.53-.95,65.27,8.48,11.87,40.28,53.56,93.35,91.69,54.37,39.07,109.49,58.88,163.83,58.88,30.08,0,60.39-6.07,90.68-18.11l-47.57-47.57Z"/>
  <path class="cls-2" d="m757.18,527.43c-7.61,10.65-33.99,45.31-77.67,79.86l-42.89-42.89c3.35-2.55,6.62-5.13,9.8-7.73-4.66,1.28-9.3,2.48-13.92,3.62-7.77,1.91-15.49,3.63-23.14,5.15l-218.78-218.78c6.7-3.01,13.4-5.74,20.1-8.2,29.85-10.94,59.7-16.46,89.32-16.46,53.84,0,108.48,18.23,162.4,54.18,53.49,35.66,85.34,74.82,93.83,85.98,14.68,19.29,15.07,45.53.95,65.27Z"/>
  <path class="cls-1" d="m766.71,765.21c-5.85,5.86-13.53,8.79-21.21,8.79s-15.36-2.93-21.21-8.79L234.79,275.71c-11.72-11.71-11.72-30.71,0-42.42,11.71-11.72,30.71-11.72,42.42,0l113.37,113.37,218.78,218.78c7.65-1.52,15.37-3.24,23.14-5.15l4.12,4.11,42.89,42.89c-5,3.96-10.23,7.91-15.68,11.83-.15.11-.31.22-.46.33l103.34,103.34c11.72,11.71,11.72,30.71,0,42.42Z"/>
  <path class="cls-2" d="m766.71,765.21c-5.85,5.86-13.53,8.79-21.21,8.79s-15.36-2.93-21.21-8.79L234.79,275.71c-11.72-11.71-11.72-30.71,0-42.42,11.71-11.72,30.71-11.72,42.42,0l113.37,113.37,218.78,218.78,10.79,10.79,43.22,43.22,103.34,103.34c11.72,11.71,11.72,30.71,0,42.42Z"/>
</svg>