<?xml version="1.0" encoding="UTF-8"?>
<svg id="Notify" xmlns="http://www.w3.org/2000/svg" viewBox="0 0 1000 1000">
  <defs>
    <style>
      .cls-1 {
        font-family: MyriadPro-Regular, 'Myriad Pro';
        font-size: 12px;
      }

      .cls-2 {
        opacity: .25;
      }
    </style>
  </defs>
  <text class="cls-1" transform="translate(500 500)"><tspan x="0" y="0">244 </tspan></text>
  <g class="cls-2">
    <path d="m612.95,628.49l-89.51,25.66-23.43,6.72-23.43-6.72-89.51-25.66-60.4-17.32-119.43-34.25c-26.42-7.57-27.14-44.76-1.03-53.36l9.03-2.98c45.71-15.05,81.02-51.76,94.28-98.03l7.91-27.59c22.29-77.75,103.4-122.71,181.14-100.41.48.14.97.28,1.45.43,63.45,18.89,104.68,77.09,104.68,140.29,0,13.36-1.85,26.95-5.71,40.43l-7.91,27.59c-12.34,43.05-4.12,89.18,21.9,125.19Z"/>
    <path d="m595.99,688.4l-54.21-15.55c.66-.35,1.38-.64,2.14-.85l84.16-24.13c12.03,20.79-7.35,47.61-32.09,40.53Z"/>
    <path d="m456.08,672.01c8.91,2.56,11.32,14.18,4.04,19.91-21.82,17.18-51.29,23.98-80.02,15.74-28.73-8.24-50.12-29.63-59.52-55.76-3.14-8.72,5.07-17.3,13.98-14.75l121.52,34.85Z"/>
  </g>
  <g>
    <path d="m792.77,576.92l-119.42,34.25-60.4,17.32-89.51,25.66-23.43,6.72-41.79,11.98-54.21,15.55c-24.73,7.08-44.12-19.73-32.09-40.53.83-1.43,1.8-2.82,2.93-4.18l6.09-7.31c2.14-2.57,4.18-5.21,6.12-7.9,26.01-36.01,34.24-82.14,21.88-125.19l-7.91-27.59c-3.87-13.48-5.71-27.07-5.71-40.43,0-63.2,41.23-121.41,104.69-140.29.48-.16.96-.29,1.44-.43,77.75-22.29,158.85,22.66,181.14,100.41l7.91,27.59c13.26,46.26,48.57,82.97,94.29,98.03l9.03,2.98c26.11,8.59,25.39,45.78-1.04,53.36Z"/>
    <path d="m679.41,651.91c-9.4,26.12-30.79,47.51-59.52,55.76-28.73,8.23-58.21,1.43-80.02-15.75-6.66-5.25-5.21-15.41,1.9-19.06.66-.35,1.38-.64,2.14-.85l84.16-24.13,37.37-10.72c8.91-2.54,17.11,6.03,13.97,14.75Z"/>
  </g>
</svg>