<?xml version="1.0" encoding="UTF-8"?>
<svg id="Small" xmlns="http://www.w3.org/2000/svg" viewBox="0 0 1000 1000">
  <path d="m429.01,323.93c0-39.76,32.24-72,72-72s72,32.24,72,72-32.24,72-72,72-72-32.24-72-72Zm-112.3,56.5c13-17.9,38-21.8,55.9-8.8l36.2,26.3c26.8,19.5,59.1,30,92.2,30s65.4-10.5,92.2-30l36.2-26.4c17.9-13,42.9-9,55.9,8.8,13,17.8,9,42.9-8.8,55.9l-36.2,26.4c-13.6,9.9-28.1,18.2-43.3,25v36.3h-192v-36.3c-15.2-6.7-29.7-15.1-43.3-25l-36.2-26.4c-17.9-13-21.8-38-8.8-55.9v.1Zm89.8,184.8l60.6,53-26,37.2,24.3,24.3c15.6,15.6,15.6,40.9,0,56.6-15.6,15.7-40.9,15.6-56.6,0l-48-48c-13.8-13.8-15.7-35.4-4.6-51.3l50.2-71.8h.1Zm128.5,53l60.6-53,50.2,71.8c11.1,15.9,9.2,37.5-4.5,51.2l-48,48c-15.6,15.6-40.9,15.6-56.6,0-15.7-15.6-15.6-40.9,0-56.6l24.3-24.3-26-37.2v.1Z"/>
  <ellipse cx="501" cy="522.59" rx="96" ry="33.41"/>
</svg>