<?xml version="1.0" encoding="UTF-8"?>
<svg id="Layer_2" data-name="Layer 2" xmlns="http://www.w3.org/2000/svg" viewBox="0 0 55.84 120.82">
  <defs>
    <style>
      .cls-1 {
        fill: #8b17ff;
      }
    </style>
  </defs>
  <g id="OBJECTS">
    <g>
      <path class="cls-1" d="m55.23,118.95c-14.17,2.46-33.66-5.25-42.33-16.8-5.09-6.79-7.12-15.81-3.1-23.61,3.17-6.16,8.66-11.14,12.97-16.51,7.13-8.88,13.71-18.93,14.92-30.53.95-9.1-1.38-18.49-7.58-25.16.9.23,1.8.43,2.7.61,2.38.46,3.25-2.77,1-3.61-3.63-1.35-7.49-2.21-11.22-3.26-1.65-.46-3.13,1.42-2.23,2.9,2.11,3.5,2.91,7.21,3.6,11.17.15.86,1.63.88,1.76,0,.32-2.16.25-4.32-.08-6.44,11.13,8.86,10.33,25.55,4.81,37.39-3.23,6.93-7.85,13.11-12.62,19.04-3.96,4.93-8.7,9.75-10.89,15.81-4.02,11.15,2.17,22.94,11.05,29.67,9.53,7.24,25.51,13.67,37.49,10.27.61-.17.35-1.04-.26-.93Z"/>
      <path class="cls-1" d="m23.54,117.93c-8.37-3.43-15.24-9.59-19.18-17.8-3.65-7.59-6.42-21.64,2.65-26.59.53-.29.06-1.09-.48-.81-8.77,4.47-7.12,17.57-4.19,25.16,3.68,9.52,11.35,17.2,21.1,20.36.21.07.28-.24.09-.32Z"/>
      <path class="cls-1" d="m42.82,27.77c-.08-.45-.74-.25-.67.19,1.16,7.84-.82,15.04-5.64,21.31-.11.14.13.32.24.19,5.32-5.91,7.49-13.88,6.07-21.68Z"/>
    </g>
  </g>
</svg>