<?xml version="1.0" encoding="UTF-8"?>
<svg id="Layer_2" data-name="Layer 2" xmlns="http://www.w3.org/2000/svg" viewBox="0 0 323.15 234.27">
  <defs>
    <style>
      .cls-1 {
        fill: #8b17ff;
      }
    </style>
  </defs>
  <g id="Layer_1-2" data-name="Layer 1">
    <g>
      <path class="cls-1" d="m275.05,160.47c-.54-4.44-.8-8.62-1.59-12.69-2.26-11.56-7.11-21.94-14.36-31.1-10.93-13.8-24.86-22.72-41.74-26.08-4.66-.93-7.15-2.95-9.76-6.9-12.3-18.64-29.57-26.79-51.22-24.14-21.6,2.64-39.19,19.88-43.73,41.79-.17.82-.89,1.8-1.62,2.17-17.14,8.74-29.23,22.23-35.98,40.71-4.5,12.32-5.56,25.04-3.33,38.08.19,1.13.37,2.26.54,3.39.02.13-.03.26-.09.76-3.05-.56-6.14-.92-9.12-1.72-25.73-6.89-44.63-22.61-55.73-47.59C-7.88,102.95,1.17,62.69,29.07,38.79c15.17-12.99,32.76-19.32,52.56-19.13,11.77.11,22.85,3.09,33.67,8,27.25,12.38,52.75,9.14,76.1-9.69,9.68-7.81,20.42-13.24,32.43-15.91,20.15-4.48,39.44-1.73,57.48,8.86,20.02,11.75,33.42,29.14,39.03,52.21,7.12,29.27.65,55.29-18.66,77.7-7.29,8.46-16.19,14.77-26.63,19.63Z"/>
      <path class="cls-1" d="m111.27,114.66c.62,3.73.89,7.46,1.92,10.95.88,2.98.18,4.68-1.82,6.91-9.42,10.46-11.75,22.89-6.68,36.08,5.23,13.61,15.53,20.99,29.81,21.92,2.32.15,4.69-.07,7.01-.35,22.86-2.74,45.72-5.53,68.57-8.32,16.98-2.07,29.25-15.36,29.85-32.95.53-15.46-8.7-28.4-21.82-33.51-1.23-.48-1.64-1.04-1.76-2.4-.38-4.27-.98-8.52-1.57-13.35,4.01,1.31,7.81,2.23,11.37,3.77,19.41,8.4,32.18,23,37.45,44.09,6.93,27.71-4.5,55.99-28.21,70.55-7.41,4.55-15.46,7.28-24.04,8.33-21.04,2.57-42.05,5.42-63.14,7.56-18.65,1.89-35.06-4.22-48.73-17.6-12.2-11.93-18.65-26.8-19.27-44.03-.72-20.07,6.45-36.87,20.86-50.23,2.78-2.58,6.03-4.62,9.08-6.89.34-.26.78-.38,1.1-.54Z"/>
      <path class="cls-1" d="m169.13,157.04c-23.52,2.79-44.83-14.57-47.79-38.93-2.97-24.41,13.96-46.31,37.98-49.13,22.94-2.69,44.52,15.09,47.3,38.97,2.85,24.47-13.81,46.28-37.48,49.09Z"/>
    </g>
  </g>
</svg>