<?xml version="1.0" encoding="UTF-8"?>
<svg id="Layer_2" data-name="Layer 2" xmlns="http://www.w3.org/2000/svg" viewBox="0 0 913.54 162.44">
  <defs>
    <style>
      .cls-1 {
        letter-spacing: -.01em;
      }

      .cls-2 {
        letter-spacing: -.02em;
      }

      .cls-3 {
        font-family: Sirenia-Semibold, Sirenia;
        font-size: 118.08px;
        font-weight: 600;
      }

      .cls-3, .cls-4 {
        fill: #595959;
      }

      .cls-5 {
        letter-spacing: 0em;
      }

      .cls-6 {
        letter-spacing: 0em;
      }
    </style>
  </defs>
  <g id="Layer_1-2" data-name="Layer 1">
    <g>
      <g>
        <path class="cls-4" d="m190.71,111.27c-.37-3.08-.55-5.98-1.1-8.8-1.57-8.02-4.93-15.21-9.96-21.56-7.58-9.57-17.24-15.75-28.94-18.09-3.23-.64-4.96-2.04-6.77-4.78-8.53-12.92-20.5-18.58-35.52-16.74-14.97,1.83-27.17,13.79-30.32,28.97-.12.57-.62,1.25-1.12,1.5-11.88,6.06-20.27,15.42-24.95,28.23-3.12,8.54-3.86,17.37-2.31,26.4.13.78.25,1.57.37,2.35.01.09-.02.18-.06.53-2.11-.39-4.26-.64-6.32-1.19-17.84-4.78-30.95-15.68-38.64-33C-5.46,71.38.81,43.47,20.16,26.9c10.52-9.01,22.71-13.39,36.44-13.26,8.16.08,15.84,2.14,23.35,5.55,18.9,8.59,36.58,6.33,52.77-6.72,6.71-5.41,14.16-9.18,22.48-11.03,13.97-3.11,27.35-1.2,39.85,6.14,13.88,8.15,23.17,20.2,27.06,36.2,4.93,20.29.45,38.34-12.94,53.88-5.06,5.87-11.23,10.24-18.46,13.61Z"/>
        <path class="cls-4" d="m77.15,79.5c.43,2.59.62,5.17,1.33,7.59.61,2.07.13,3.25-1.26,4.79-6.53,7.25-8.15,15.87-4.63,25.02,3.63,9.43,10.77,14.55,20.67,15.2,1.61.11,3.25-.05,4.86-.24,15.85-1.9,31.7-3.84,47.55-5.77,11.77-1.43,20.28-10.65,20.7-22.85.37-10.72-6.03-19.69-15.13-23.23-.85-.33-1.14-.72-1.22-1.66-.26-2.96-.68-5.91-1.09-9.26,2.78.91,5.42,1.55,7.88,2.61,13.46,5.82,22.31,15.95,25.97,30.57,4.81,19.21-3.12,38.82-19.56,48.92-5.14,3.15-10.72,5.05-16.67,5.77-14.59,1.78-29.16,3.76-43.78,5.24-12.93,1.31-24.31-2.93-33.78-12.2-8.46-8.27-12.93-18.59-13.36-30.53-.5-13.91,4.47-25.57,14.47-34.83,1.93-1.79,4.18-3.2,6.3-4.78.24-.18.54-.27.76-.37Z"/>
        <path class="cls-4" d="m117.27,108.88c-16.31,1.93-31.08-10.1-33.13-26.99-2.06-16.92,9.68-32.11,26.33-34.07,15.9-1.87,30.87,10.46,32.79,27.02,1.98,16.96-9.57,32.09-25.99,34.04Z"/>
      </g>
      <text class="cls-3" transform="translate(250.78 106.37)"><tspan x="0" y="0">K</tspan><tspan class="cls-1" x="69.19" y="-1.53">L</tspan><tspan x="128.59" y="-1.53">EINE </tspan><tspan class="cls-2" x="384.46" y="-1.53">Z</tspan><tspan class="cls-6" x="446.33" y="-1.53">O</tspan><tspan class="cls-5" x="523.32" y="-1.53">RG</tspan></text>
    </g>
  </g>
</svg>