<?xml version="1.0" encoding="UTF-8"?>
<svg id="Layer_2" data-name="Layer 2" xmlns="http://www.w3.org/2000/svg" viewBox="0 0 621 552">
  <g id="Cart">
    <path fill="#8b17ff" d="m273.09,37.84c6.58-12.72,1.62-28.35-11-34.93-12.61-6.58-28.35-1.62-34.93,11l-100.37,193.09H34.5c-19.08,0-34.5,15.42-34.5,34.5s15.42,34.5,34.5,34.5l55.95,223.71c7.65,30.73,35.25,52.29,66.95,52.29h306.19c31.7,0,59.3-21.56,66.95-52.29l55.95-223.71c19.08,0,34.5-15.42,34.5-34.5s-15.42-34.5-34.5-34.5h-92.29L393.84,13.91c-6.58-12.61-22.21-17.57-34.93-11s-17.57,22.21-11,34.93l87.98,169.16h-250.77l87.98-169.16Zm-81.84,282.03v119.25c0,10.93-8.94,19.88-19.88,19.88s-19.88-8.94-19.88-19.88v-119.25c0-10.93,8.94-19.87,19.88-19.87s19.88,8.94,19.88,19.87Zm119.25-19.87c10.93,0,19.88,8.94,19.88,19.87v119.25c0,10.93-8.94,19.88-19.88,19.88s-19.88-8.94-19.88-19.88v-119.25c0-10.93,8.94-19.87,19.88-19.87Zm159,19.87v119.25c0,10.93-8.94,19.88-19.88,19.88s-19.87-8.94-19.87-19.88v-119.25c0-10.93,8.94-19.87,19.87-19.87s19.88,8.94,19.88,19.87Z"/>
  </g>
</svg>