<?xml version="1.0" encoding="UTF-8"?>
<svg id="Layer_2" data-name="Layer 2" xmlns="http://www.w3.org/2000/svg" viewBox="0 0 640.61 546.08">
  <g id="Cart">
    <path id="shopping-cart" fill="#8b17ff" d="m179.97,413.07c-11.78-.19-21.17-9.9-20.97-21.67.19-11.5,9.47-20.78,20.97-20.97,78.67.27,286.18.07,367.36.13,22.1.08,41.3-15.19,46.19-36.74l46.1-199.6c4.77-20.64-8.09-41.24-28.73-46.01-2.78-.64-5.63-.97-8.48-.99-31.78,0-295.48-1.19-440.39-1.77-6.76-.03-12.66-4.57-14.42-11.09l-12.54-40.46C129.61,13.91,111.47.03,90.76,0H18.66C8.18.18-.18,8.83,0,19.32c.18,10.23,8.43,18.48,18.66,18.66h72.1c3.56,0,6.68,2.38,7.62,5.82l75.15,272.75c2.12,7.88-2.44,16-10.27,18.29-25.04,7.33-43.05,30.68-42.57,57.94.71,32.28,27.01,58.12,59.3,58.27h7.39c9.23,0,16.36,8.27,14.81,17.36-4.88,28.62,9.52,58.13,37.04,71.2,33.16,15.75,72.82,1.63,88.56-31.54,5.89-12.41,7.73-26.18,5.52-39.45-1.53-9.19,5.45-17.58,14.77-17.58h79.31c9.23,0,16.36,8.27,14.81,17.37-4.89,28.62,9.51,58.14,37.03,71.21,33.16,15.76,72.82,1.64,88.58-31.52,7.18-15.12,8.34-32.26,3.51-48.01-1.61-5.24-.12-10.94,3.67-14.9,4.72-4.93,6.61-12.25,4.29-19.17-2.6-7.74-9.85-12.96-18.02-12.95H179.97Zm116.21,66.48c0,21.67-24.2,37.69-47.05,22.52-1.56-1.04-2.91-2.39-3.95-3.95-15.18-22.84.82-47.04,22.49-47.06h.05c15.73.02,28.47,12.77,28.49,28.49h-.02Zm211.54,28.48c-15.73.13-28.59-12.52-28.72-28.25-.13-15.73,12.52-28.59,28.25-28.72h.93c15.73.13,28.38,12.99,28.25,28.72-.13,15.73-12.99,28.38-28.72,28.25Zm94.78-382.68c.09.08.12.21.07.32l-16.74,72.48c-1.57,6.8-7.63,11.62-14.62,11.62h-36.71c-9.06,0-16.06-7.98-14.87-16.96l7.23-54.81c.99-7.48,7.38-13.07,14.93-13.04l60.42.24c.12-.02.23.04.3.14h-.02Zm-195.79,192.23v-54.82c0-8.28,6.72-15,15-15h35.25c9.06,0,16.06,7.98,14.87,16.96l-7.23,54.81c-.98,7.46-7.34,13.04-14.87,13.04h-28.02c-8.29,0-15-6.71-15-14.99Zm-95.92,1.98l-7.31-54.82c-1.2-8.99,5.8-16.98,14.87-16.98h35.37c8.28,0,15,6.72,15,15v54.81c0,8.28-6.71,15-15,15h-28.06c-7.52,0-13.88-5.56-14.87-13.01Zm-85.7,13.02h-.06c-4.63-.01-8.69-3.11-9.92-7.58l-15.72-58.34c-2.57-9.53,4.61-18.9,14.48-18.9h35.9c7.52,0,13.88,5.57,14.87,13.02l7.29,54.82c1.2,8.99-5.8,16.98-14.87,16.98h-31.99Zm69.36-135.81l-7.44-55.8c-1.2-9.02,5.83-17.02,14.93-16.98l51.81.21c8.26.03,14.94,6.74,14.94,15v55.58c0,8.28-6.71,15-15,15h-44.37c-7.52,0-13.88-5.56-14.87-13.01Zm112.26-1.98v-55.3c0-8.31,6.75-15.03,15.06-15l51.48.21c9.04.04,15.99,8,14.81,16.96l-7.27,55.09c-.98,7.46-7.34,13.04-14.87,13.04h-44.21c-8.29,0-15-6.71-15-14.99Zm-158.57-58.03l7.46,56.06c1.2,8.99-5.8,16.98-14.87,16.98h-45.18c-6.78,0-12.72-4.55-14.48-11.1l-15.16-56.28c-2.58-9.56,4.65-18.94,14.55-18.9l52.88.22c7.5.03,13.82,5.59,14.81,13.02Zm299.17,195.82h-29.01c-9.06,0-16.06-7.98-14.87-16.96l7.23-54.81c.98-7.46,7.35-13.04,14.87-13.04h30c9.65,0,16.79,8.98,14.62,18.38l-13.66,59.14c-.97,4.28-4.79,7.31-9.18,7.3Z"/>
  </g>
</svg>